<svg width="1920" height="1080" viewBox="0 0 1920 1080" fill="none" xmlns="http://www.w3.org/2000/svg">
<path d="M0 128.319V1030C0 1057.61 22.3858 1080 50 1080H1870C1897.61 1080 1920 1057.61 1920 1030V50C1920 22.3858 1897.61 0 1870 0H1133.16C1111.53 0 1094 17.5322 1094 39.1594C1094 60.7865 1076.47 78.3187 1054.84 78.3187H50C22.3858 78.3187 0 100.704 0 128.319Z" fill="#1E1E1E"/>
<path d="M0 128C0 100.386 22.3858 78 50 78H308V1080H50C22.3858 1080 0 1057.61 0 1030V128Z" fill="#262626"/>
<path d="M308 1080H358C325.5 1080 308 1062.5 308 1030V1080Z" fill="#262626"/>
<path d="M308 78V128C308 95.5 325.5 78 358 78H308Z" fill="#262626"/>
</svg>
