<svg width="24" height="26" viewBox="0 0 24 26" fill="none" xmlns="http://www.w3.org/2000/svg">
<path d="M9.03414 4.93184L9.75465 3.07191C9.87617 2.757 10.09 2.48613 10.368 2.29478C10.6461 2.10342 10.9754 2.00051 11.313 1.99951H12.687C13.0245 2.00051 13.3539 2.10342 13.6319 2.29478C13.91 2.48613 14.1238 2.757 14.2453 3.07191L14.9658 4.93184L17.4122 6.33936L19.3894 6.03775C19.7186 5.99306 20.0538 6.04725 20.3522 6.19345C20.6505 6.33965 20.8986 6.57123 21.065 6.8588L21.7353 8.03173C21.907 8.32388 21.9863 8.66123 21.9623 8.99927C21.9383 9.33731 21.8125 9.66015 21.6012 9.92518L20.378 11.4835V14.2985L21.6347 15.8569C21.846 16.1219 21.9718 16.4447 21.9958 16.7828C22.0198 17.1208 21.9405 17.4582 21.7688 17.7503L21.0985 18.9232C20.9321 19.2108 20.684 19.4424 20.3857 19.5886C20.0873 19.7347 19.7522 19.789 19.4229 19.7443L17.4457 19.4427L14.9993 20.8502L14.2788 22.7101C14.1573 23.025 13.9435 23.2959 13.6655 23.4873C13.3874 23.6787 13.058 23.7815 12.7205 23.7825H11.313C10.9754 23.7815 10.6461 23.6787 10.368 23.4873C10.09 23.2959 9.87617 23.025 9.75465 22.7101L9.03414 20.8502L6.58774 19.4427L4.61051 19.7443C4.28128 19.789 3.94619 19.7347 3.64783 19.5886C3.34949 19.4424 3.10133 19.2108 2.93489 18.9232L2.26464 17.7503C2.09289 17.4582 2.01377 17.1208 2.0377 16.7828C2.06162 16.4447 2.1875 16.1219 2.39869 15.8569L3.62189 14.2985V11.4835L2.36518 9.92518C2.15398 9.66015 2.02811 9.33731 2.00418 8.99927C1.98026 8.66123 2.05938 8.32388 2.23113 8.03173L2.90138 6.8588C3.06782 6.57123 3.31597 6.33965 3.61432 6.19345C3.91268 6.04725 4.24777 5.99306 4.57699 6.03775L6.55422 6.33936L9.03414 4.93184ZM8.64875 12.891C8.64875 13.5538 8.84529 14.2018 9.21353 14.7529C9.58178 15.304 10.1052 15.7335 10.7175 15.9872C11.3299 16.2408 12.0037 16.3072 12.6538 16.1779C13.3038 16.0486 13.901 15.7294 14.3697 15.2607C14.8383 14.792 15.1575 14.1949 15.2868 13.5448C15.4161 12.8947 15.3498 12.2209 15.0961 11.6086C14.8425 10.9962 14.4129 10.4728 13.8618 10.1046C13.3107 9.73634 12.6628 9.53979 12 9.53979C11.1112 9.53979 10.2588 9.89286 9.6303 10.5214C9.00183 11.1498 8.64875 12.0022 8.64875 12.891Z" stroke="white" stroke-width="3" stroke-linecap="round" stroke-linejoin="round"/>
</svg>
